<svg xmlns="http://www.w3.org/2000/svg" width="30" height="30" viewBox="0 0 512 512" version="1.1"><path d="M 277.649 218.759 C 277.349 219.245, 276.789 224.898, 276.405 231.321 C 275.966 238.658, 275.242 243.384, 274.457 244.035 C 273.719 244.648, 268.972 244.955, 262.854 244.786 L 252.500 244.500 252.203 238.833 C 252.038 235.705, 251.314 232.676, 250.586 232.072 C 249.667 231.309, 237.022 231.056, 208.884 231.239 L 168.500 231.500 168.498 248 C 168.497 257.075, 168.385 299.230, 168.248 341.679 C 167.971 427.812, 168.501 422, 160.929 422 L 157 422 156.955 402.750 C 156.601 252.980, 156.353 231.836, 154.936 230.939 C 154.146 230.440, 151.925 230.076, 150 230.131 C 148.075 230.187, 147.400 230.422, 148.500 230.655 C 149.600 230.888, 151.512 231.294, 152.750 231.558 L 155 232.038 155.004 323.769 C 155.006 374.221, 155.301 421.238, 155.658 428.250 L 156.309 441 163.763 441 L 171.217 441 170.572 438.432 C 169.731 435.080, 169.794 292.204, 170.651 258.250 L 171.314 232 207.532 232 C 227.452 232, 245.156 232.281, 246.875 232.625 C 249.893 233.229, 250 233.428, 250 238.434 C 250 246.865, 250.993 247.528, 263.343 247.340 C 272.463 247.201, 274.230 246.890, 276.836 244.963 C 279.641 242.889, 279.807 242.402, 279.401 237.416 L 278.968 232.086 282.932 231.018 C 285.112 230.431, 289.409 229.850, 292.482 229.726 L 298.068 229.500 297.784 224 L 297.500 218.500 287.848 218.188 C 282.539 218.016, 277.949 218.273, 277.649 218.759" stroke="none" fill="#df9766" fill-rule="evenodd"/><path d="M 299.236 223.332 C 299.091 226.724, 298.866 277.103, 298.736 335.285 C 298.538 423.890, 298.276 441.209, 297.122 441.923 C 296.364 442.393, 293.439 443.079, 290.622 443.448 C 283.281 444.410, 281.181 446.077, 280.808 451.235 L 280.500 455.500 269 456.118 C 262.675 456.459, 238.698 456.796, 215.719 456.868 C 183.062 456.971, 173.858 456.727, 173.576 455.750 C 173.377 455.063, 172.829 452.250, 172.357 449.500 L 171.500 444.500 163.779 444.208 C 155.378 443.891, 155.818 443.586, 154.782 450.466 C 154.619 451.547, 153.294 453.100, 151.838 453.917 C 149.631 455.156, 148.925 455.183, 147.595 454.079 C 146.154 452.883, 145.984 442.012, 145.832 341.628 L 145.665 230.500 144.879 318 C 144.447 366.125, 144.185 416.654, 144.297 430.287 C 144.518 457.287, 144.443 456.953, 150.316 456.985 C 154.406 457.007, 157 455.284, 157 452.547 C 157 447.700, 157.867 447, 163.869 447 L 169.525 447 171.379 453.474 C 172.399 457.035, 173.800 460.419, 174.492 460.994 C 175.722 462.014, 257.676 462.226, 273.308 461.250 C 279.560 460.859, 280.206 460.607, 281.214 458.162 C 281.818 456.698, 282.579 453.475, 282.906 451 L 283.500 446.500 290.992 446 C 297.769 445.548, 298.595 445.262, 299.658 443 C 300.506 441.195, 300.925 423.265, 301.166 378.500 C 301.473 321.454, 300.620 218.289, 299.834 217.500 C 299.651 217.315, 299.381 219.940, 299.236 223.332 M 307.385 249 C 307.385 255.875, 307.545 258.688, 307.740 255.250 C 307.936 251.813, 307.936 246.188, 307.740 242.750 C 307.545 239.313, 307.385 242.125, 307.385 249 M 307.370 272 C 307.370 277.775, 307.535 280.137, 307.737 277.250 C 307.939 274.363, 307.939 269.637, 307.737 266.750 C 307.535 263.863, 307.370 266.225, 307.370 272 M 138.310 381.500 C 138.315 384.800, 138.502 386.029, 138.725 384.232 C 138.947 382.435, 138.943 379.735, 138.715 378.232 C 138.486 376.729, 138.304 378.200, 138.310 381.500 M 138.374 401.500 C 138.376 407.550, 138.541 409.896, 138.740 406.713 C 138.939 403.531, 138.937 398.581, 138.736 395.713 C 138.535 392.846, 138.372 395.450, 138.374 401.500 M 138.232 418 C 138.232 419.925, 138.438 420.712, 138.689 419.750 C 138.941 418.788, 138.941 417.212, 138.689 416.250 C 138.438 415.288, 138.232 416.075, 138.232 418 M 138.320 449 C 138.320 452.575, 138.502 454.038, 138.723 452.250 C 138.945 450.462, 138.945 447.538, 138.723 445.750 C 138.502 443.962, 138.320 445.425, 138.320 449" stroke="none" fill="#6b3a1f" fill-rule="evenodd"/><path d="M 299.300 224 C 299.300 227.025, 299.487 228.262, 299.716 226.750 C 299.945 225.238, 299.945 222.762, 299.716 221.250 C 299.487 219.738, 299.300 220.975, 299.300 224 M 290.159 231.809 C 287.064 232.116, 286.873 232.338, 287.556 234.820 C 287.962 236.294, 288.200 240.494, 288.085 244.152 C 287.963 248, 288.323 251.081, 288.937 251.461 C 290.557 252.462, 290.214 256.417, 288.001 262.239 C 286.058 267.352, 286.004 269.899, 286.034 353.432 L 286.065 439.366 282.520 442.809 C 279.210 446.024, 278.547 447.378, 277.777 452.500 C 277.496 454.369, 276.497 454.535, 262.488 455.041 L 247.500 455.582 262 455.777 C 280.717 456.030, 281 455.950, 281 450.419 C 281 445.435, 282.198 444.411, 289.125 443.469 C 291.531 443.142, 294.512 442.669, 295.750 442.418 L 298 441.962 298 389.981 C 298 357.806, 297.638 338, 297.050 338 C 296.527 338, 295.641 338.788, 295.080 339.750 C 294.129 341.382, 294.059 341.373, 294.030 339.610 C 294.014 338.571, 294.788 337.145, 295.750 336.442 C 297.367 335.260, 297.518 331.638, 297.741 288.831 C 297.874 263.349, 298.099 240.025, 298.241 237 C 298.527 230.918, 298.607 230.970, 290.159 231.809 M 146.246 342.191 C 145.986 459.390, 145.813 454.850, 150.500 454.152 C 153.301 453.736, 155 451.179, 155 447.382 C 155 445.142, 155.538 444.006, 156.750 443.689 C 158.219 443.305, 158.179 443.216, 156.500 443.131 C 153.512 442.981, 152.283 444.127, 151.280 448 C 150.764 449.989, 149.648 451.637, 148.691 451.821 C 147.124 452.123, 146.991 444.583, 146.750 341.822 L 146.491 231.500 146.246 342.191 M 290.745 315.588 C 289.695 316.638, 289.814 323, 290.883 323 C 291.369 323, 291.962 322.212, 292.201 321.250 C 292.782 318.912, 291.685 314.648, 290.745 315.588 M 292.688 326.646 C 291.314 328.020, 292.026 330.142, 293.750 329.810 C 294.712 329.624, 295.500 328.841, 295.500 328.070 C 295.500 326.491, 293.736 325.598, 292.688 326.646 M 289.290 332.967 C 286.793 334.988, 287.252 336, 290.667 336 C 292.997 336, 293.625 334.531, 292.232 332.341 C 291.701 331.507, 290.875 331.683, 289.290 332.967 M 293.475 343.317 C 293.067 344.317, 293.193 345.593, 293.754 346.154 C 295.160 347.560, 295.914 345.929, 294.982 343.500 C 294.260 341.617, 294.171 341.607, 293.475 343.317 M 164.974 443.721 C 168.535 443.933, 171.832 444.645, 172.300 445.304 C 172.899 446.144, 173.032 446.054, 172.746 445 C 172.438 443.861, 170.675 443.480, 165.420 443.417 L 158.500 443.334 164.974 443.721 M 227.762 456.707 C 229.006 456.946, 230.806 456.937, 231.762 456.687 C 232.718 456.437, 231.700 456.241, 229.500 456.252 C 227.300 456.263, 226.518 456.468, 227.762 456.707" stroke="none" fill="#994725" fill-rule="evenodd"/><path d="M 287.175 250.125 C 287.079 255.419, 286.771 261.269, 286.490 263.125 L 285.981 266.500 287.445 263.500 C 289.684 258.915, 290.379 254.089, 289.150 251.670 C 288.544 250.477, 287.890 247.475, 287.698 245 C 287.506 242.525, 287.271 244.831, 287.175 250.125 M 252.523 259.963 C 251.737 261.235, 251.566 433.489, 252.349 434.756 C 252.682 435.295, 255.425 435.793, 258.445 435.862 C 262.930 435.966, 264.125 435.635, 264.972 434.053 C 266.031 432.074, 265.387 424.902, 264.069 424 C 263.667 423.725, 263.256 419.450, 263.156 414.500 C 263.056 409.550, 262.700 398.902, 262.366 390.838 L 261.758 376.176 264.968 374.516 L 268.178 372.857 267.647 362.178 C 267.354 356.305, 267.099 351.050, 267.079 350.500 C 267.059 349.950, 267.261 343.538, 267.529 336.250 L 268.015 323 265.564 323 C 260.828 323, 260.002 320.048, 259.976 303.027 C 259.963 294.487, 259.534 285.700, 259.024 283.500 C 258.513 281.300, 258.010 276.015, 257.907 271.756 C 257.783 266.645, 257.256 263.628, 256.359 262.883 C 255.612 262.263, 255 261.135, 255 260.378 C 255 258.798, 253.408 258.532, 252.523 259.963 M 285.374 279.500 C 285.376 285.550, 285.541 287.896, 285.740 284.713 C 285.939 281.531, 285.937 276.581, 285.736 273.713 C 285.535 270.846, 285.372 273.450, 285.374 279.500 M 285.392 304 C 285.392 311.425, 285.549 314.462, 285.742 310.750 C 285.934 307.038, 285.934 300.962, 285.742 297.250 C 285.549 293.538, 285.392 296.575, 285.392 304 M 285.419 359 C 285.419 369.725, 285.566 374.113, 285.746 368.750 C 285.925 363.387, 285.925 354.613, 285.746 349.250 C 285.566 343.887, 285.419 348.275, 285.419 359 M 285.168 418 C 284.959 427.986, 284.419 429.970, 281.985 429.678 C 278.627 429.275, 279.395 433.594, 282.899 434.815 C 285.592 435.754, 285.824 435.636, 286.149 433.163 C 286.342 431.698, 286.245 425.550, 285.933 419.500 L 285.366 408.500 285.168 418 M 268.409 429.378 C 267.209 432.504, 268.453 434.509, 271.456 434.289 C 274.532 434.063, 276.158 432.436, 275.741 430 C 275.382 427.909, 269.174 427.382, 268.409 429.378 M 252.177 444.282 C 251.702 446.052, 251.634 448.400, 252.026 449.500 C 252.631 451.197, 253.478 451.450, 257.619 451.172 C 260.304 450.992, 262.994 450.212, 263.599 449.438 C 264.203 448.664, 264.991 448.324, 265.349 448.682 C 265.707 449.040, 266 448.893, 266 448.354 C 266 446.671, 260.229 441.756, 258.830 442.246 C 258.099 442.503, 256.497 442.342, 255.270 441.889 C 253.331 441.172, 252.928 441.485, 252.177 444.282 M 276.216 446.845 C 275.508 447.294, 275.220 448.409, 275.573 449.330 C 276.251 451.096, 278 451.638, 278 450.082 C 278 449.577, 278.273 448.452, 278.607 447.582 C 279.266 445.865, 278.253 445.553, 276.216 446.845" stroke="none" fill="#bb6029" fill-rule="evenodd"/><path d="M 239.638 241.500 C 239.247 242.520, 239.692 243, 241.031 243 C 242.115 243, 243 242.325, 243 241.500 C 243 240.675, 242.373 240, 241.607 240 C 240.841 240, 239.955 240.675, 239.638 241.500 M 236.020 242.476 C 235.324 243.314, 235.067 244, 235.449 244 C 235.831 244, 235.414 244.729, 234.524 245.619 C 233.633 246.510, 232.633 246.967, 232.301 246.635 C 231.969 246.303, 231.084 246.812, 230.334 247.766 C 229.585 248.719, 229.031 249.050, 229.104 248.500 C 229.427 246.070, 228.892 245.757, 227.498 247.559 C 226.462 248.896, 226.167 249.002, 226.548 247.898 C 226.998 246.593, 226.351 246.315, 223.050 246.394 C 220.823 246.448, 219 246.817, 219 247.214 C 219 247.612, 218.320 247.676, 217.489 247.357 C 216.490 246.974, 216.154 247.239, 216.499 248.139 C 216.809 248.948, 218.521 249.500, 220.719 249.500 C 223.498 249.500, 224.687 250.033, 225.498 251.643 C 226.092 252.822, 227.153 254.480, 227.856 255.326 C 229.002 256.708, 229.315 256.693, 230.895 255.183 C 231.863 254.257, 232.437 252.825, 232.169 252 C 231.901 251.175, 232.045 250.829, 232.489 251.232 C 233.653 252.286, 236.765 248.348, 237.534 244.846 C 238.318 241.276, 237.752 240.389, 236.020 242.476 M 192.469 247.972 C 192.660 249.291, 193.714 249.496, 198.333 249.111 C 199.067 249.050, 199.667 248.394, 199.667 247.653 C 199.667 246.749, 198.449 246.338, 195.961 246.403 C 193.304 246.473, 192.316 246.916, 192.469 247.972 M 248.750 258.689 C 247.787 258.941, 247 259.564, 247 260.073 C 247 260.583, 246.148 261, 245.107 261 C 244.066 261, 242.955 261.675, 242.638 262.500 C 242.322 263.325, 242.483 264, 242.997 264 C 243.511 264, 245.351 265.388, 247.086 267.084 C 250.205 270.133, 250.234 270.251, 249.550 277.187 C 248.731 285.506, 248.180 287.229, 246.646 286.281 C 244.716 285.088, 237.544 285.142, 236.765 286.356 C 236.243 287.169, 236.026 287.121, 236.015 286.191 C 236.007 285.471, 235.539 285.167, 234.975 285.515 C 234.412 285.864, 234.015 285.778, 234.094 285.324 C 234.172 284.871, 234.184 283.038, 234.118 281.250 C 234.017 278.470, 233.634 278, 231.469 278 C 229.036 278, 228.108 279.060, 227.619 282.393 C 227.214 285.150, 225.980 285.500, 216.667 285.500 L 207.500 285.500 207.203 291.734 C 206.913 297.819, 206.829 297.987, 203.703 298.798 L 200.500 299.628 200.293 335.564 C 200.179 355.329, 200.067 372.042, 200.043 372.704 C 200.015 373.490, 197.652 374.011, 193.250 374.204 L 186.500 374.500 186.233 399.698 L 185.966 424.897 199.097 424.897 C 210.187 424.897, 212.528 425.168, 214.157 426.642 C 215.663 428.005, 218.050 428.415, 225.043 428.514 C 229.969 428.583, 234 428.271, 234 427.820 C 234 427.369, 234.563 427.112, 235.250 427.250 C 235.938 427.387, 236.362 426.861, 236.194 426.081 C 235.929 424.855, 236.126 424.855, 237.636 426.081 C 238.752 426.987, 239.113 427.048, 238.633 426.250 C 238.180 425.496, 238.419 425, 239.235 425 C 240.224 425, 240.568 423.454, 240.513 419.250 C 240.458 414.986, 240.884 413.112, 242.163 412 C 243.111 411.175, 244.025 409.610, 244.193 408.522 C 244.362 407.435, 245.142 405.771, 245.928 404.824 C 247.244 403.239, 247.449 403.232, 248.550 404.738 C 249.488 406.021, 249.784 400.242, 249.928 377.842 C 250.110 349.386, 249.528 338.555, 247.874 339.578 C 247.393 339.875, 247 337.879, 247 335.142 C 247 332.097, 247.485 329.971, 248.250 329.662 C 249.250 329.259, 249.250 329.142, 248.250 329.079 C 247.563 329.036, 247 328.523, 247 327.941 C 247 327.359, 247.450 327.160, 248 327.500 C 248.581 327.859, 249.059 326.732, 249.142 324.809 C 249.280 321.585, 249.301 321.603, 249.958 325.500 C 250.328 327.700, 250.632 313.413, 250.631 293.750 C 250.631 274.087, 250.602 258.052, 250.566 258.116 C 250.530 258.180, 249.713 258.438, 248.750 258.689 M 248.320 354 C 248.320 357.575, 248.502 359.038, 248.723 357.250 C 248.945 355.462, 248.945 352.538, 248.723 350.750 C 248.502 348.962, 248.320 350.425, 248.320 354 M 248.286 365.500 C 248.294 368.250, 248.488 369.256, 248.718 367.736 C 248.947 366.216, 248.941 363.966, 248.704 362.736 C 248.467 361.506, 248.279 362.750, 248.286 365.500 M 205.167 435.414 C 181.724 436.419, 179.726 436.648, 178.382 438.488 C 177.480 439.725, 177.324 440.608, 177.972 440.824 C 178.544 441.015, 178.811 441.497, 178.565 441.895 C 178.318 442.294, 181.496 442.573, 185.627 442.516 C 189.757 442.459, 193.328 442.722, 193.563 443.102 C 193.797 443.481, 195.567 443.436, 197.495 443.001 C 199.423 442.566, 201 442.585, 201 443.043 C 201 443.501, 201.787 443.907, 202.750 443.945 C 203.713 443.983, 207.875 444.257, 212 444.554 C 216.125 444.851, 221.990 445.210, 225.033 445.353 C 228.076 445.496, 231.082 445.933, 231.714 446.323 C 232.345 446.713, 233.158 446.553, 233.520 445.968 C 233.930 445.305, 234.616 445.250, 235.339 445.823 C 237.135 447.246, 240.209 446.355, 242.288 443.809 C 243.325 442.539, 243.883 442.063, 243.528 442.750 C 243.173 443.438, 243.321 444, 243.858 444 C 244.394 444, 245.096 443.438, 245.417 442.750 C 245.883 441.750, 246.117 441.750, 246.583 442.750 C 246.904 443.438, 247.804 444, 248.583 444 C 249.598 444, 250 442.709, 250 439.450 C 250 435.437, 249.797 435.014, 248.276 435.866 C 247.163 436.488, 245.899 436.481, 244.712 435.846 C 243.492 435.193, 242.457 435.205, 241.641 435.883 C 240.791 436.588, 239.184 436.469, 236.455 435.496 C 234.280 434.722, 232.050 434.142, 231.500 434.208 C 230.950 434.274, 219.100 434.817, 205.167 435.414" stroke="none" fill="#d07431" fill-rule="evenodd"/><path d="M 177.500 42.709 C 207.350 43.398, 272.765 43.426, 272.346 42.750 C 272.091 42.338, 247.946 42.097, 218.691 42.216 C 189.436 42.335, 170.900 42.557, 177.500 42.709 M 271.301 46.087 C 270.369 47.028, 270.440 47.951, 271.622 50.235 C 273.091 53.077, 273.359 53.167, 279.820 52.976 C 283.494 52.867, 287.063 52.828, 287.750 52.889 C 288.718 52.975, 289 59.412, 289 81.429 C 289 105.939, 289.217 110.074, 290.571 111.429 C 292.726 113.583, 305.667 113.571, 308.500 111.413 C 310.329 110.019, 309.645 109.906, 300.500 110.083 L 290.500 110.277 290.234 81.972 C 290.054 62.764, 289.605 53.229, 288.838 52.305 C 287.975 51.265, 285.985 51.099, 280.422 51.603 L 273.136 52.263 272.818 48.570 C 272.570 45.692, 272.235 45.144, 271.301 46.087 M 171.322 53.250 C 170.884 53.938, 170.680 64.658, 170.868 77.074 C 171.167 96.805, 171.007 99.850, 169.597 101.260 C 168.609 102.249, 168.374 103.113, 168.992 103.495 C 169.547 103.838, 170 105.237, 170 106.604 C 170 107.972, 171.012 110.099, 172.250 111.331 C 174.488 113.560, 174.693 113.573, 211 113.825 C 252.786 114.116, 276.465 112.964, 278.907 110.522 C 280.213 109.216, 280.541 105.310, 280.852 87.388 C 281.113 72.372, 280.887 65.487, 280.109 64.709 C 279.494 64.094, 276.855 63.345, 274.245 63.045 C 269.532 62.504, 269.496 62.471, 268.935 58.269 C 268.625 55.941, 268.025 53.691, 267.602 53.269 C 267.179 52.846, 250.108 52.460, 229.667 52.410 L 192.500 52.321 225 52.910 C 242.875 53.235, 258.063 53.864, 258.750 54.309 C 259.438 54.754, 260 56.226, 260 57.580 C 260 59.331, 260.795 60.363, 262.750 61.152 C 264.262 61.762, 266.971 62.984, 268.768 63.868 L 272.037 65.475 271.768 87.487 L 271.500 109.500 262 110.429 C 256.775 110.941, 234.500 111.391, 212.500 111.429 L 172.500 111.500 172.233 83 C 171.991 57.094, 172.122 54.386, 173.675 53.250 C 175.212 52.125, 175.219 52, 173.750 52 C 172.852 52, 171.760 52.563, 171.322 53.250 M 179.728 52.722 C 181.503 52.943, 184.653 52.946, 186.728 52.730 C 188.802 52.513, 187.350 52.333, 183.500 52.328 C 179.650 52.324, 177.952 52.501, 179.728 52.722 M 161.395 70.500 C 161.396 78.200, 161.553 81.218, 161.743 77.206 C 161.934 73.195, 161.932 66.895, 161.741 63.206 C 161.549 59.518, 161.393 62.800, 161.395 70.500 M 311.244 111.250 C 311.868 113.151, 316.637 113.389, 317.341 111.554 C 317.811 110.328, 317.187 110, 314.385 110 C 311.991 110, 310.967 110.408, 311.244 111.250 M 321 111.059 C 321 111.641, 320.550 111.840, 320 111.500 C 319.450 111.160, 319 111.359, 319 111.941 C 319 112.574, 321.533 113, 325.300 113 C 328.867 113, 332.121 113.521, 332.800 114.200 C 333.643 115.043, 334 120.689, 334 133.200 C 334 150.760, 334.029 151, 336.155 151 C 338.179 151, 338.210 150.889, 336.655 149.171 C 334.603 146.904, 334.559 146, 336.500 146 C 337.771 146, 338 143.556, 338 130 C 338 116.027, 337.798 114, 336.406 114 C 335.530 114, 334.577 113.100, 334.290 112 C 333.836 110.263, 332.926 110, 327.383 110 C 323.557 110, 321 110.424, 321 111.059 M 200.500 122.099 C 197.200 122.475, 191.921 122.832, 188.769 122.891 C 183.685 122.988, 182.981 123.254, 182.534 125.250 C 181.690 129.016, 181.448 147.847, 182.250 147.349 C 182.662 147.092, 183.007 142.296, 183.015 136.691 C 183.024 131.086, 183.361 125.997, 183.765 125.383 C 184.288 124.589, 204.051 124.093, 252.213 123.667 C 312.327 123.135, 320.098 123.241, 321.463 124.605 C 322.725 125.868, 323.003 129.214, 323.015 143.321 C 323.024 152.770, 323.361 160.995, 323.765 161.600 C 325.097 163.595, 328.808 165, 332.743 165 C 334.874 165, 337.491 165.638, 338.559 166.419 C 340.440 167.794, 340.510 169.849, 340.832 232.669 C 341.015 268.326, 340.853 304.392, 340.474 312.816 C 339.805 327.643, 339.709 328.160, 337.452 329.018 C 334.171 330.266, 332.844 333.310, 333.197 338.784 L 333.500 343.500 344 343.500 C 353.930 343.500, 354.554 343.378, 355.487 341.250 C 356.030 340.012, 357.043 339, 357.737 339 C 358.677 339, 358.996 336.250, 358.985 328.250 C 358.976 321.862, 358.621 318.050, 358.110 318.857 C 357.549 319.742, 357.025 319.849, 356.603 319.167 C 356.247 318.591, 355.675 298.180, 355.332 273.810 C 354.719 230.257, 355.444 197.538, 357 198.500 C 358.594 199.485, 358.903 195.646, 358.958 174.173 L 359.015 152.253 355.848 151.620 C 354.106 151.271, 352.452 151.214, 352.174 151.493 C 351.895 151.772, 352.319 152, 353.116 152 C 354.375 152, 354.521 164.432, 354.223 246.250 C 354.034 298.087, 353.689 341.079, 353.457 341.788 C 353.143 342.743, 350.645 343.001, 343.767 342.788 C 334.896 342.512, 334.486 342.400, 334.167 340.148 C 333.512 335.518, 334.755 333.413, 338.723 332.433 L 342.500 331.500 342.756 249.085 C 342.987 174.762, 342.855 166.497, 341.414 164.905 C 340.373 163.755, 337.578 162.900, 333.394 162.452 C 329.862 162.074, 326.713 161.344, 326.396 160.831 C 326.079 160.318, 325.866 152.140, 325.923 142.658 C 326.004 129.145, 325.717 124.995, 324.593 123.459 C 323.199 121.553, 321.575 121.499, 264.830 121.457 C 232.749 121.434, 203.800 121.722, 200.500 122.099 M 172 124.895 C 172 125.468, 172.654 125.686, 173.454 125.379 C 174.620 124.932, 174.980 126.179, 175.270 131.661 L 175.631 138.500 175.566 131.511 C 175.511 125.679, 175.210 124.466, 173.750 124.187 C 172.787 124.004, 172 124.322, 172 124.895 M 272.425 137.334 C 272.144 138.067, 272.046 142.455, 272.207 147.084 L 272.500 155.500 284.102 155.780 C 292.734 155.989, 295.983 155.725, 296.793 154.749 C 298.397 152.817, 298.580 139.404, 297.028 137.534 C 295.294 135.445, 273.219 135.265, 272.425 137.334 M 273.698 138.635 C 273.314 139.019, 273 142.625, 273 146.648 C 273 155.355, 272.812 155.241, 286.500 154.794 L 295.500 154.500 295.500 146.500 L 295.500 138.500 284.948 138.218 C 279.145 138.063, 274.083 138.251, 273.698 138.635 M 175 141.117 C 175 141.761, 174.106 141.999, 172.885 141.680 C 171.721 141.376, 170.034 141.521, 169.135 142.003 C 168.236 142.485, 166.269 143.138, 164.765 143.455 C 162.915 143.844, 161.824 144.854, 161.392 146.575 C 160.987 148.187, 160.249 148.926, 159.377 148.591 C 158.266 148.165, 158 149.945, 158 157.809 C 158 166.336, 157.748 167.771, 155.989 169.278 C 154.882 170.225, 153.195 171.007, 152.239 171.015 C 150.750 171.028, 150.716 171.170, 152 172 C 153.957 173.264, 156 173.264, 156 172 C 156 171.450, 156.787 170.132, 157.750 169.072 C 158.713 168.011, 160.045 166.474, 160.711 165.655 C 161.412 164.795, 162.045 160.229, 162.211 154.834 C 162.488 145.893, 162.599 145.486, 164.852 145.167 C 166.145 144.984, 168.333 145.118, 169.714 145.464 C 172.052 146.051, 172.114 146.217, 170.612 147.876 C 169.726 148.856, 169.029 150.522, 169.063 151.579 C 169.120 153.295, 169.220 153.267, 170.007 151.315 C 170.953 148.966, 173.856 147.036, 175.527 147.644 C 176.160 147.874, 176.408 146.477, 176.172 144.009 C 175.827 140.393, 175 138.351, 175 141.117 M 168.193 168.312 L 168 175.124 161.934 174.823 C 156.470 174.552, 155.679 174.769, 153.957 177.011 C 152.905 178.380, 152.034 179.924, 152.022 180.441 C 152.010 180.959, 152.610 180.548, 153.356 179.528 C 154.431 178.057, 155.983 177.687, 160.876 177.733 C 168.398 177.804, 169.251 176.717, 168.740 167.728 L 168.385 161.500 168.193 168.312 M 273.698 170.635 C 273.314 171.019, 273 173.058, 273 175.167 L 273 179 277.918 179 C 286.379 179, 286 178.200, 286 196.050 C 286 211.281, 286.085 211.946, 288.223 213.443 C 289.445 214.299, 292.055 215, 294.023 215 C 295.990 215, 298.167 215.563, 298.859 216.250 C 299.869 217.252, 299.988 217.157, 299.460 215.771 C 299.016 214.604, 297.212 213.832, 293.901 213.393 L 289 212.742 289 195.840 C 289 181.690, 288.756 178.861, 287.500 178.469 C 282.279 176.838, 282.334 177.003, 286 173.959 C 287.959 172.333, 290.714 171.042, 292.259 171.027 C 295.010 171, 295.016 171.014, 294.383 176.398 C 293.555 183.440, 294.683 184.067, 307.684 183.794 L 317.500 183.589 308.500 183.295 C 294.579 182.840, 294.838 182.977, 295.196 176.218 L 295.500 170.500 284.948 170.218 C 279.145 170.063, 274.083 170.251, 273.698 170.635 M 139.137 171.894 C 137.986 172.623, 137.986 172.842, 139.137 173.300 C 140.105 173.685, 140.138 173.865, 139.250 173.921 C 137.481 174.033, 137.688 177, 139.465 177 C 140.922 177, 143 174.099, 143 172.066 C 143 170.787, 141.023 170.699, 139.137 171.894 M 318.685 183.693 C 319.579 184.330, 319.948 205.922, 320.185 271.519 C 320.358 319.359, 320.852 359.043, 321.282 359.706 C 321.712 360.370, 322.725 360.659, 323.532 360.349 C 324.593 359.942, 325 358.152, 325 353.893 C 325 350.652, 324.598 348, 324.107 348 C 323.616 348, 322.828 347.212, 322.357 346.250 C 321.886 345.287, 321.275 308.312, 321 264.083 C 320.563 193.734, 320.312 183.615, 319 183.257 C 317.959 182.973, 317.863 183.106, 318.685 183.693 M 151.286 188.500 C 151.294 191.250, 151.488 192.256, 151.718 190.736 C 151.947 189.216, 151.941 186.966, 151.704 185.736 C 151.467 184.506, 151.279 185.750, 151.286 188.500 M 306 192.980 C 303.530 193.620, 303.503 193.739, 303.777 203.064 C 303.979 209.955, 304.451 212.799, 305.527 213.610 C 306.337 214.221, 307 215.233, 307 215.860 C 307 216.487, 307.337 217, 307.750 217 C 308.498 217.001, 308.855 244.194, 308.950 308.250 C 308.978 327.164, 309.390 342, 309.886 342 C 311.620 342, 311.894 332.678, 312.195 263.615 C 312.497 194.491, 312.478 193.722, 310.500 193.031 C 309.400 192.647, 307.375 192.624, 306 192.980 M 307.625 202.179 C 308.346 210.265, 308.549 210.851, 310.099 209.301 C 310.853 208.547, 310.775 207.608, 309.832 206.087 C 308.722 204.297, 308.723 203.800, 309.838 203.106 C 310.573 202.648, 311.248 200.750, 311.338 198.887 C 311.473 196.070, 311.119 195.446, 309.236 195.179 C 307.012 194.863, 306.984 194.985, 307.625 202.179 M 151 212.767 C 151 213.372, 149.797 214.010, 148.327 214.184 C 146.857 214.358, 145.451 215.175, 145.202 216 C 144.837 217.211, 145.006 217.259, 146.075 216.250 C 146.804 215.563, 148.183 215, 149.141 215 C 151.012 215, 152.585 213.252, 151.600 212.267 C 151.270 211.937, 151 212.162, 151 212.767 M 144.272 222 C 144.272 224.475, 144.467 225.488, 144.706 224.250 C 144.944 223.012, 144.944 220.988, 144.706 219.750 C 144.467 218.512, 144.272 219.525, 144.272 222 M 137.272 225 C 137.272 227.475, 137.467 228.488, 137.706 227.250 C 137.944 226.012, 137.944 223.988, 137.706 222.750 C 137.467 221.512, 137.272 222.525, 137.272 225 M 307.232 289 C 307.232 290.925, 307.438 291.712, 307.689 290.750 C 307.941 289.788, 307.941 288.212, 307.689 287.250 C 307.438 286.288, 307.232 287.075, 307.232 289 M 307.355 301.500 C 307.352 306.450, 307.521 308.601, 307.731 306.280 C 307.940 303.959, 307.943 299.909, 307.736 297.280 C 307.530 294.651, 307.358 296.550, 307.355 301.500 M 307.252 323.500 C 307.263 325.700, 307.468 326.482, 307.707 325.238 C 307.946 323.994, 307.937 322.194, 307.687 321.238 C 307.437 320.282, 307.241 321.300, 307.252 323.500 M 307.310 336.500 C 307.315 339.800, 307.502 341.029, 307.725 339.232 C 307.947 337.435, 307.943 334.735, 307.715 333.232 C 307.486 331.729, 307.304 333.200, 307.310 336.500 M 321.598 363.736 C 321.269 364.064, 321 365.369, 321 366.635 C 321 369.382, 323.534 368.890, 324.291 365.995 C 324.765 364.182, 322.800 362.533, 321.598 363.736 M 309.995 425.500 L 309.500 479.500 224.280 479.756 L 139.060 480.011 138.733 467.504 L 138.407 454.997 138.453 467.748 L 138.500 480.500 223.623 480.756 C 294.669 480.969, 308.934 480.785, 309.882 479.642 C 310.706 478.650, 310.945 463.614, 310.754 424.887 L 310.491 371.500 309.995 425.500 M 138.365 433.500 C 138.368 439, 138.536 441.122, 138.738 438.216 C 138.941 435.311, 138.939 430.811, 138.734 428.216 C 138.528 425.622, 138.363 428, 138.365 433.500" stroke="none" fill="#485375" fill-rule="evenodd"/><path d="M 189.250 41.749 C 203.963 41.905, 228.037 41.905, 242.750 41.749 C 257.462 41.593, 245.425 41.466, 216 41.466 C 186.575 41.466, 174.537 41.593, 189.250 41.749 M 273 50.138 C 273 52.188, 273.301 52.249, 280.354 51.609 C 285.973 51.100, 287.974 51.264, 288.836 52.302 C 289.584 53.203, 290.066 61.719, 290.266 77.581 L 290.569 101.500 290.392 76.500 C 290.294 62.750, 290.070 50.712, 289.893 49.750 C 289.617 48.250, 288.388 48, 281.286 48 C 273.488 48, 273 48.126, 273 50.138 M 224.898 53.750 L 255.296 54.030 254.668 81.195 C 254.322 96.136, 253.693 108.678, 253.270 109.067 C 252.846 109.456, 234.412 109.938, 212.305 110.137 C 190.198 110.337, 172.485 110.877, 172.942 111.337 C 173.920 112.321, 253.020 111.391, 264 110.268 L 271.500 109.500 271.768 87.487 L 272.037 65.475 268.768 63.868 C 266.971 62.984, 264.295 61.777, 262.822 61.185 C 260.981 60.445, 260.043 59.243, 259.822 57.344 C 259.594 55.387, 258.770 54.378, 257 53.889 C 255.625 53.510, 241 53.260, 224.500 53.334 L 194.500 53.470 224.898 53.750 M 172.413 82.500 C 172.414 92.400, 172.564 96.315, 172.746 91.199 C 172.928 86.084, 172.927 77.984, 172.744 73.199 C 172.561 68.415, 172.412 72.600, 172.413 82.500 M 290 107.441 C 290 108.784, 290.369 110.110, 290.819 110.388 C 291.270 110.667, 291.443 109.568, 291.206 107.947 C 290.681 104.373, 290 104.087, 290 107.441 M 334.171 111.648 C 334.364 112.654, 335.346 113.636, 336.352 113.829 C 337.673 114.084, 338.084 113.673, 337.829 112.352 C 337.636 111.346, 336.654 110.364, 335.648 110.171 C 334.327 109.916, 333.916 110.327, 334.171 111.648 M 227.500 124.020 L 192.500 124.539 231.500 125.020 C 252.950 125.284, 281.371 125.500, 294.657 125.500 C 307.943 125.500, 319.107 125.789, 319.466 126.142 C 319.824 126.495, 320.087 134.949, 320.050 144.929 C 319.983 162.919, 320.004 163.095, 322.446 165.537 C 324.246 167.337, 325.990 168, 328.929 168 C 335.890 168, 336.198 169.506, 335.533 200.296 C 335.221 214.708, 334.749 248.815, 334.484 276.090 C 334.113 314.189, 333.682 326.740, 332.623 330.257 C 331.866 332.774, 331.458 335.944, 331.717 337.300 C 331.976 338.656, 331.674 340.084, 331.045 340.472 C 330.271 340.950, 330.637 341.818, 332.173 343.150 C 334.186 344.896, 335.586 345.074, 344.472 344.717 C 356.948 344.216, 358.421 343.851, 358.820 341.159 C 359.246 338.277, 356.762 338.344, 355.487 341.250 C 354.554 343.378, 353.930 343.500, 344 343.500 L 333.500 343.500 333.197 338.784 C 332.844 333.310, 334.171 330.266, 337.452 329.018 C 339.709 328.160, 339.805 327.643, 340.474 312.816 C 340.853 304.392, 341.015 268.326, 340.832 232.669 C 340.510 169.849, 340.440 167.794, 338.559 166.419 C 337.491 165.638, 334.874 165, 332.743 165 C 328.808 165, 325.097 163.595, 323.765 161.600 C 323.361 160.995, 323.024 152.770, 323.015 143.321 C 323.003 128.949, 322.740 125.882, 321.406 124.549 C 319.686 122.829, 311.002 122.780, 227.500 124.020 M 183.607 125.582 C 183.273 126.452, 183.045 127.914, 183.100 128.832 C 183.156 129.769, 183.502 129.404, 183.890 128 C 184.435 126.031, 185.422 125.371, 188.541 124.892 L 192.500 124.284 188.357 124.142 C 185.408 124.041, 184.039 124.456, 183.607 125.582 M 271.915 134.603 C 270.294 136.555, 270.493 153.684, 272.159 155.691 C 272.946 156.640, 276.637 157, 285.587 157 C 300.145 157, 299.685 157.369, 299.914 145.487 C 300.140 133.727, 299.936 133.558, 285.203 133.251 C 275.249 133.043, 273.021 133.270, 271.915 134.603 M 272.425 137.334 C 272.144 138.067, 272.046 142.455, 272.207 147.084 L 272.500 155.500 284.102 155.780 C 292.734 155.989, 295.983 155.725, 296.793 154.749 C 298.397 152.817, 298.580 139.404, 297.028 137.534 C 295.294 135.445, 273.219 135.265, 272.425 137.334 M 161.676 143.130 C 161.293 144.597, 160.612 145.065, 159.491 144.635 C 158.249 144.158, 157.938 144.525, 158.181 146.177 C 158.546 148.657, 161 149.944, 161 147.655 C 161 145.391, 163.832 143, 166.512 143 C 167.816 143, 169.160 142.550, 169.500 142 C 169.872 141.398, 168.549 141, 166.176 141 C 162.994 141, 162.126 141.411, 161.676 143.130 M 335 146.845 C 335 147.310, 335.841 148.451, 336.868 149.381 C 338.651 150.994, 338.714 150.955, 338.252 148.536 C 337.815 146.254, 335 144.790, 335 146.845 M 172.031 149 C 171.166 149.825, 170.895 150.162, 171.429 149.750 C 171.963 149.338, 174.533 149, 177.141 149 C 179.749 149, 182.091 148.662, 182.345 148.250 C 183.248 146.789, 173.615 147.490, 172.031 149 M 169.336 160 C 169.336 164.125, 169.513 165.813, 169.728 163.750 C 169.944 161.688, 169.944 158.313, 169.728 156.250 C 169.513 154.188, 169.336 155.875, 169.336 160 M 154.500 168.705 C 152.850 169.599, 152.047 170.513, 152.715 170.737 C 153.383 170.960, 154.930 170.211, 156.153 169.072 C 158.799 166.607, 158.498 166.540, 154.500 168.705 M 278.500 169.636 C 285.491 170.373, 295.780 170.443, 295.349 169.750 C 295.092 169.338, 290.521 169.072, 285.191 169.160 C 279.861 169.248, 276.850 169.462, 278.500 169.636 M 295.630 175.250 C 293.684 182.513, 294.349 182.884, 310 183.253 L 320.500 183.500 321 264 C 321.275 308.275, 321.886 345.288, 322.357 346.250 C 323.330 348.237, 325.162 348.662, 324.513 346.750 C 324.280 346.063, 323.864 309.108, 323.590 264.629 C 323.316 220.150, 322.811 183.475, 322.467 183.129 C 322.123 182.783, 316.140 182.275, 309.171 182 L 296.500 181.500 296.689 177.250 C 296.900 172.530, 296.541 171.852, 295.630 175.250 M 152.223 197.281 C 152.024 212.275, 151.814 214.120, 150.250 214.604 C 145.831 215.969, 145.502 216.580, 145.401 223.604 L 145.302 230.500 145.901 223.500 C 146.432 217.293, 146.747 216.465, 148.677 216.190 C 152.733 215.613, 153.065 214.033, 152.749 196.867 L 152.447 180.500 152.223 197.281 M 307.625 202.179 C 308.346 210.265, 308.549 210.851, 310.099 209.301 C 310.853 208.547, 310.775 207.608, 309.832 206.087 C 308.722 204.297, 308.723 203.800, 309.838 203.106 C 310.573 202.648, 311.248 200.750, 311.338 198.887 C 311.473 196.070, 311.119 195.446, 309.236 195.179 C 307.012 194.863, 306.984 194.985, 307.625 202.179 M 358.242 197.809 C 358.109 198.529, 357.597 198.869, 357.105 198.565 C 355.446 197.540, 354.704 229.147, 355.334 273.930 C 355.909 314.749, 356.664 325.334, 358.471 317.895 C 358.791 316.578, 358.925 288.725, 358.768 256 C 358.612 223.275, 358.375 197.089, 358.242 197.809 M 283.216 210.763 L 280.931 212.290 285.075 214.145 C 287.354 215.165, 290.265 216, 291.544 216 C 292.823 216, 295.063 216.454, 296.521 217.008 C 298.549 217.779, 299.074 217.720, 298.756 216.758 C 298.527 216.066, 296.351 215.263, 293.920 214.974 C 288.820 214.367, 287.130 213.503, 286.180 211.016 C 285.559 209.390, 285.301 209.369, 283.216 210.763 M 137.485 354 C 137.485 423.025, 137.604 451.262, 137.750 416.750 C 137.896 382.237, 137.896 325.762, 137.750 291.250 C 137.604 256.737, 137.485 284.975, 137.485 354 M 308.300 239 C 308.300 242.025, 308.487 243.262, 308.716 241.750 C 308.945 240.238, 308.945 237.762, 308.716 236.250 C 308.487 234.738, 308.300 235.975, 308.300 239 M 308.328 266.500 C 308.333 270.350, 308.513 271.802, 308.730 269.728 C 308.946 267.653, 308.943 264.503, 308.722 262.728 C 308.501 260.952, 308.324 262.650, 308.328 266.500 M 308.450 308 C 308.450 326.975, 308.584 334.738, 308.748 325.250 C 308.913 315.762, 308.913 300.238, 308.748 290.750 C 308.584 281.262, 308.450 289.025, 308.450 308 M 311 474.531 C 311 475.339, 311.675 476, 312.500 476 C 313.325 476, 314 475.598, 314 475.107 C 314 474.616, 313.325 473.955, 312.500 473.638 C 311.586 473.288, 311 473.637, 311 474.531 M 295.280 481.736 C 297.909 481.943, 301.959 481.940, 304.280 481.731 C 306.601 481.521, 304.450 481.352, 299.500 481.355 C 294.550 481.358, 292.651 481.530, 295.280 481.736" stroke="none" fill="#677598" fill-rule="evenodd"/><path d="M 183.204 38.674 C 170.022 38.913, 163.124 39.392, 163.526 40.041 C 163.925 40.688, 182.220 41.018, 215.322 40.975 C 243.470 40.939, 267.850 41.094, 269.500 41.320 C 271.150 41.546, 271.600 41.510, 270.500 41.240 L 268.500 40.751 270.500 39.919 C 271.721 39.411, 268.023 39.099, 261 39.116 C 254.675 39.132, 239.150 38.957, 226.500 38.726 C 213.850 38.495, 194.367 38.472, 183.204 38.674 M 289.604 50.649 C 290.097 51.667, 290.594 64.200, 290.709 78.500 C 290.824 92.800, 290.937 105.737, 290.959 107.250 C 290.982 108.763, 291.384 110, 291.853 110 C 292.977 110, 294.224 57.520, 293.208 53.006 C 292.707 50.786, 291.744 49.382, 290.564 49.155 C 289.064 48.866, 288.880 49.152, 289.604 50.649 M 173.555 53.911 C 173.143 54.577, 172.755 67.582, 172.692 82.811 L 172.579 110.500 212.539 110.130 C 234.518 109.927, 252.846 109.445, 253.270 109.060 C 253.693 108.675, 254.323 96.129, 254.668 81.180 L 255.296 54 230.398 53.997 C 216.704 53.995, 198.481 53.702, 189.902 53.346 C 178.177 52.860, 174.118 53, 173.555 53.911 M 173.800 78 C 173.690 91.200, 173.577 103.688, 173.550 105.750 L 173.500 109.500 183.879 109.500 L 194.259 109.500 194.077 98.956 C 193.977 93.157, 194.399 81.595, 195.013 73.262 C 196.485 53.312, 196.879 54, 183.965 54 L 174 54 173.800 78 M 184 82.059 C 184 84.291, 184.405 85.868, 184.900 85.562 C 185.395 85.256, 185.800 83.429, 185.800 81.503 C 185.800 79.576, 185.395 78, 184.900 78 C 184.405 78, 184 79.827, 184 82.059 M 184 102 C 184 103.100, 184.450 104, 185 104 C 185.550 104, 186 103.100, 186 102 C 186 100.900, 185.550 100, 185 100 C 184.450 100, 184 100.900, 184 102 M 189 124.821 C 187.075 124.998, 185.072 125.561, 184.550 126.071 C 184.027 126.582, 183.352 131.838, 183.050 137.750 L 182.500 148.500 177.525 148.814 C 171.030 149.224, 169.967 150.241, 170.150 155.872 L 170.300 160.500 170.900 156 L 171.500 151.500 176.500 150.982 C 179.250 150.697, 182.063 150.108, 182.750 149.673 C 183.597 149.137, 184 146.018, 184 140.006 C 184 135.124, 184.436 129.982, 184.970 128.580 L 185.939 126.029 216.720 125.764 L 247.500 125.500 220 125 C 204.875 124.725, 190.925 124.645, 189 124.821 M 267.279 125.912 C 269.361 126.615, 270.935 129.372, 270.968 132.372 C 270.994 134.665, 271.272 135.019, 272.347 134.127 C 273.210 133.411, 277.901 133.098, 285.428 133.255 C 299.905 133.557, 300.139 133.755, 299.914 145.487 C 299.687 157.287, 300.049 156.979, 286.215 157.118 C 273.711 157.245, 274.728 158.653, 287.500 158.897 C 296.077 159.061, 297.244 159.712, 296.824 164.105 C 296.518 167.308, 296.246 167.534, 292 168.100 C 287.618 168.684, 287.597 168.704, 291.191 168.850 C 295.691 169.033, 296.402 170.064, 296.457 176.489 L 296.500 181.500 309.171 182 C 316.140 182.275, 322.123 182.783, 322.467 183.129 C 322.811 183.475, 323.316 220.150, 323.590 264.629 C 323.864 309.108, 324.263 346.019, 324.476 346.654 C 325.029 348.300, 351.849 348.482, 355.399 346.864 C 358.050 345.656, 358.476 343.072, 355.875 343.980 C 355.119 344.244, 349.987 344.608, 344.472 344.790 C 335.646 345.080, 334.172 344.884, 332.173 343.150 C 330.637 341.818, 330.271 340.950, 331.045 340.472 C 331.674 340.084, 331.976 338.656, 331.717 337.300 C 331.458 335.944, 331.866 332.774, 332.623 330.257 C 333.682 326.740, 334.113 314.189, 334.484 276.090 C 334.749 248.815, 335.221 214.708, 335.533 200.296 C 336.198 169.506, 335.890 168, 328.929 168 C 325.990 168, 324.246 167.337, 322.446 165.537 C 320.004 163.095, 319.983 162.919, 320.050 144.929 C 320.087 134.949, 319.826 126.495, 319.471 126.142 C 319.116 125.789, 306.952 125.500, 292.441 125.500 C 277.930 125.500, 266.607 125.686, 267.279 125.912 M 159.345 142.543 C 159.019 143.392, 159.004 144.337, 159.310 144.643 C 160.186 145.519, 162 144.034, 162 142.441 C 162 140.522, 160.092 140.596, 159.345 142.543 M 338.255 149 C 338.578 150.192, 340.594 150.513, 348.081 150.565 L 357.500 150.630 348.533 150.273 C 343.047 150.054, 339.232 149.447, 338.707 148.708 C 338.096 147.849, 337.965 147.934, 338.255 149 M 154.250 165.750 C 154.387 166.162, 154.100 166.574, 153.612 166.665 C 152.654 166.842, 151.040 169.049, 151.015 170.216 C 151.007 170.610, 152.575 170.003, 154.500 168.867 C 158.411 166.560, 159.016 165, 156 165 C 154.900 165, 154.113 165.338, 154.250 165.750 M 169.185 172.250 C 169.033 176.972, 168.687 178.007, 167.250 178.040 C 161.149 178.178, 155.115 178.811, 154.139 179.414 C 153.360 179.895, 153 185.413, 153 196.859 C 153 214.109, 152.591 216, 148.859 216 C 147.901 216, 146.890 216.369, 146.612 216.819 C 145.815 218.109, 151.819 216.923, 152.943 215.569 C 153.506 214.891, 154.071 206.885, 154.225 197.428 L 154.500 180.500 161.164 180.206 C 165.281 180.025, 168.264 179.387, 168.969 178.537 C 169.628 177.744, 169.954 174.909, 169.740 171.831 L 169.370 166.500 169.185 172.250 M 273.667 214.425 C 272.642 217.096, 277.004 218.535, 284.500 218 L 291.500 217.500 287.290 215.250 C 282.408 212.641, 274.535 212.164, 273.667 214.425 M 311.241 421.167 C 311.443 461.863, 311.775 473.425, 312.752 473.751 C 313.743 474.081, 313.999 463.251, 313.982 421.584 C 313.963 375.693, 313.771 369, 312.471 369 C 311.168 369, 311.015 375.519, 311.241 421.167 M 135.055 428 C 134.921 475.674, 135.065 481, 136.485 481 C 137.353 481, 138.322 481.675, 138.638 482.500 C 139.132 483.786, 142.943 483.978, 165.357 483.843 C 179.739 483.756, 189.251 483.377, 186.500 483 C 183.086 482.532, 186.221 482.264, 196.384 482.157 C 205.180 482.064, 212.836 482.470, 215.102 483.149 C 218.193 484.075, 219.271 484.026, 220.660 482.899 C 221.608 482.129, 222.067 482.028, 221.680 482.674 C 221.145 483.566, 231.817 483.875, 265.988 483.959 C 305.834 484.057, 311 483.894, 311 482.535 C 311 481.691, 311.675 481, 312.500 481 C 313.433 481, 314 480.056, 314 478.500 C 314 476.944, 313.433 476, 312.500 476 C 311.574 476, 311 476.939, 311 478.455 C 311 481.741, 307.320 482.387, 292.753 481.660 C 286.564 481.351, 249.261 481.076, 209.857 481.049 C 146.228 481.005, 138.148 480.827, 137.622 479.456 C 137.296 478.607, 137.008 454.757, 136.982 426.456 C 136.956 398.155, 136.545 375, 136.069 375 C 135.593 375, 135.136 398.850, 135.055 428" stroke="none" fill="#9797b5" fill-rule="evenodd"/><path d="M 255.750 125.723 C 257.538 125.945, 260.462 125.945, 262.250 125.723 C 264.038 125.502, 262.575 125.320, 259 125.320 C 255.425 125.320, 253.963 125.502, 255.750 125.723 M 270.320 148 C 270.320 151.575, 270.502 153.037, 270.723 151.250 C 270.945 149.463, 270.945 146.537, 270.723 144.750 C 270.502 142.963, 270.320 144.425, 270.320 148 M 271.657 170.750 C 271.395 171.713, 271.477 181.500, 271.840 192.500 L 272.500 212.500 276.500 212.572 C 278.889 212.615, 281.608 211.883, 283.250 210.754 C 285.998 208.866, 286 208.853, 285.986 196.682 C 285.968 180.024, 286.046 180.218, 278.987 179.419 C 273.839 178.837, 273.135 178.484, 272.714 176.282 C 272.053 172.826, 272.907 170.186, 274.853 169.670 C 276.006 169.363, 275.845 169.197, 274.317 169.116 C 273.020 169.047, 271.941 169.710, 271.657 170.750" stroke="none" fill="#369de7" fill-rule="evenodd"/><path d="M 249.032 127.024 C 251.154 128.625, 251.165 128.865, 251.045 170.234 C 250.968 196.403, 251.286 212.059, 251.902 212.439 C 252.440 212.772, 256.901 213.251, 261.815 213.505 C 266.730 213.759, 271.482 214.248, 272.375 214.591 C 274.123 215.261, 274.559 214.002, 273.117 212.450 C 272.218 211.481, 270.938 172.526, 271.731 170.250 C 272.024 169.409, 274.837 168.941, 280.333 168.820 L 288.500 168.640 281.041 168.070 C 274.152 167.544, 273.529 167.309, 272.890 165 C 271.674 160.601, 271.922 160.190, 276.250 159.414 L 280.500 158.652 276.254 157.768 C 273.919 157.282, 271.582 156.088, 271.061 155.114 C 269.993 153.119, 269.670 140.814, 270.506 134 C 271.389 126.810, 270.225 126.063, 257.592 125.712 C 247.579 125.433, 247.034 125.517, 249.032 127.024" stroke="none" fill="#67bcf5" fill-rule="evenodd"/><path d="M 174.049 82 L 174.131 110 178.006 110 C 182.463 110, 183.320 109.124, 182.411 105.500 C 181.797 103.056, 181.655 103.003, 179.927 104.566 C 178.198 106.130, 178.056 106.072, 177.421 103.541 C 177.051 102.066, 177.071 98.753, 177.465 96.179 C 177.860 93.606, 178.217 90.938, 178.258 90.250 C 178.300 89.563, 178.596 89.263, 178.917 89.583 C 179.477 90.144, 179.600 90.604, 179.875 93.167 C 179.944 93.808, 180.218 94.115, 180.484 93.849 C 180.751 93.583, 181.218 86.533, 181.523 78.182 C 182.064 63.388, 182.026 63, 180.039 63 C 176.781 63, 177.676 61.591, 181.750 60.308 C 184.216 59.531, 185.842 59.465, 186.500 60.113 C 187.461 61.061, 187.827 103.067, 186.913 107.500 C 186.555 109.235, 187.029 109.500, 190.500 109.500 C 193.547 109.500, 194.415 109.143, 194.144 108 C 193.595 105.687, 194.024 74.308, 194.705 67 C 195.547 57.962, 195.399 55.868, 193.848 54.885 C 193.106 54.415, 188.330 54.024, 183.234 54.015 L 173.968 54 174.049 82 M 173.300 131 C 173.300 134.025, 173.487 135.262, 173.716 133.750 C 173.945 132.238, 173.945 129.762, 173.716 128.250 C 173.487 126.737, 173.300 127.975, 173.300 131 M 184.975 128.565 C 184.439 129.976, 184 135.135, 184 140.030 C 184 149.953, 183.325 150.985, 176.816 151.015 C 171.196 151.041, 170.944 151.595, 170.294 165.346 C 169.939 172.861, 169.234 178.391, 168.559 178.951 C 167.935 179.469, 164.516 180.030, 160.962 180.197 L 154.500 180.500 154.386 197.733 C 154.265 216.140, 153.805 218, 149.378 218 C 147.226 218, 147 218.428, 147 222.500 L 147 227 151.750 227.025 C 154.363 227.039, 177.594 227.090, 203.376 227.138 L 250.251 227.226 255.631 229.689 C 258.590 231.043, 261.474 233.017, 262.041 234.076 C 262.607 235.134, 263.492 236, 264.007 236 C 265.420 236, 266.831 229.745, 265.853 227.816 C 264.323 224.795, 264.896 222.245, 267.250 221.600 C 268.488 221.261, 270.588 220.067, 271.918 218.946 C 275.879 215.607, 273.150 214.091, 262.155 213.523 C 257.054 213.259, 252.440 212.772, 251.902 212.439 C 251.286 212.059, 250.969 196.396, 251.045 170.215 C 251.158 131.435, 251.045 128.506, 249.392 127.297 C 248.029 126.301, 240.471 126, 216.784 126 L 185.950 126 184.975 128.565 M 344.750 149.723 C 346.538 149.945, 349.462 149.945, 351.250 149.723 C 353.038 149.502, 351.575 149.320, 348 149.320 C 344.425 149.320, 342.962 149.502, 344.750 149.723 M 274.188 159.714 C 272.167 160.100, 271.959 160.555, 272.543 163.328 C 272.910 165.072, 273.539 166.853, 273.941 167.286 C 274.342 167.718, 279.583 167.943, 285.586 167.786 L 296.500 167.500 296.824 164.105 C 297.019 162.063, 296.621 160.375, 295.824 159.870 C 294.482 159.019, 278.433 158.903, 274.188 159.714 M 136.457 285 C 136.457 307.825, 136.588 317.163, 136.749 305.750 C 136.909 294.338, 136.909 275.663, 136.749 264.250 C 136.588 252.838, 136.457 262.175, 136.457 285 M 198.762 483.707 C 200.006 483.946, 201.806 483.937, 202.762 483.687 C 203.718 483.437, 202.700 483.241, 200.500 483.252 C 198.300 483.263, 197.518 483.468, 198.762 483.707" stroke="none" fill="#b6e7fb" fill-rule="evenodd"/><path d="M 181.250 60.355 C 177.604 61.543, 176.936 63, 180.039 63 C 182.026 63, 182.064 63.388, 181.523 78.182 C 181.218 86.533, 180.751 93.583, 180.484 93.849 C 180.218 94.115, 179.944 93.808, 179.875 93.167 C 179.600 90.604, 179.477 90.144, 178.917 89.583 C 178.596 89.263, 178.300 89.563, 178.258 90.250 C 178.217 90.938, 177.860 93.606, 177.465 96.179 C 177.071 98.753, 177.051 102.066, 177.421 103.541 C 178.056 106.072, 178.198 106.130, 179.927 104.566 C 181.655 103.003, 181.797 103.056, 182.411 105.500 C 182.768 106.925, 182.825 108.473, 182.537 108.940 C 182.249 109.406, 183.039 109.724, 184.292 109.646 C 185.546 109.568, 186.697 108.828, 186.850 108.002 C 187.520 104.385, 187.735 64.654, 187.097 62.271 C 186.267 59.167, 185.585 58.943, 181.250 60.355 M 195.232 63 C 195.232 64.925, 195.438 65.713, 195.689 64.750 C 195.941 63.788, 195.941 62.212, 195.689 61.250 C 195.438 60.288, 195.232 61.075, 195.232 63 M 194.286 76.500 C 194.294 79.250, 194.488 80.256, 194.718 78.736 C 194.947 77.216, 194.941 74.966, 194.704 73.736 C 194.467 72.506, 194.279 73.750, 194.286 76.500 M 184 82.059 C 184 84.291, 184.405 85.868, 184.900 85.562 C 185.395 85.256, 185.800 83.429, 185.800 81.503 C 185.800 79.576, 185.395 78, 184.900 78 C 184.405 78, 184 79.827, 184 82.059 M 184 102 C 184 103.100, 184.450 104, 185 104 C 185.550 104, 186 103.100, 186 102 C 186 100.900, 185.550 100, 185 100 C 184.450 100, 184 100.900, 184 102 M 173.252 105.500 C 173.263 107.700, 173.468 108.482, 173.707 107.238 C 173.946 105.994, 173.937 104.194, 173.687 103.238 C 173.437 102.282, 173.241 103.300, 173.252 105.500 M 174 132.375 C 174 133.131, 173.719 135.156, 173.375 136.875 C 173.031 138.594, 173.158 140, 173.658 140 C 174.157 140, 174.653 137.975, 174.761 135.500 C 174.869 133.025, 174.741 131, 174.478 131 C 174.215 131, 174 131.619, 174 132.375 M 152.450 215.915 C 151.928 216.419, 150.375 216.981, 149 217.165 C 146.885 217.448, 146.451 218.102, 146.180 221.405 C 145.639 228.020, 146.578 229.998, 150.269 230.015 C 156.804 230.046, 156.346 224.464, 156.641 307.674 C 156.788 349.378, 156.930 392.163, 156.955 402.750 L 157 422 160.929 422 C 168.501 422, 167.971 427.812, 168.248 341.679 C 168.385 299.230, 168.497 257.075, 168.498 248 L 168.500 231.500 208.884 231.239 C 237.022 231.056, 249.667 231.309, 250.586 232.072 C 251.314 232.676, 252.038 235.705, 252.203 238.833 L 252.500 244.500 263.101 244.782 C 270.807 244.988, 273.982 244.714, 274.729 243.782 C 276.285 241.841, 277.439 218.390, 276.022 217.514 C 275.396 217.126, 273.197 217.977, 271.138 219.405 C 269.078 220.832, 266.854 222, 266.196 222 C 264.809 222, 264.611 225.364, 265.853 227.816 C 266.831 229.745, 265.420 236, 264.007 236 C 263.492 236, 262.607 235.134, 262.041 234.076 C 261.474 233.017, 258.590 231.043, 255.631 229.689 L 250.251 227.226 203.376 227.138 C 177.594 227.090, 154.363 227.039, 151.750 227.025 L 147 227 147 222.500 C 147 218.428, 147.226 218, 149.378 218 C 150.685 218, 152.315 217.325, 153 216.500 C 154.361 214.860, 153.973 214.448, 152.450 215.915 M 135.667 330.667 C 134.691 331.642, 134.852 335, 135.875 335 C 136.356 335, 136.750 333.875, 136.750 332.500 C 136.750 329.794, 136.672 329.662, 135.667 330.667 M 135.736 340.250 C 134.702 342.954, 134.937 375, 135.990 375 C 136.697 375, 137.015 369.034, 136.952 357 C 136.900 347.100, 136.713 339, 136.536 339 C 136.359 339, 135.999 339.563, 135.736 340.250 M 182.136 482.469 C 182.394 482.728, 190.232 483.139, 199.553 483.383 C 209.206 483.635, 215.639 483.463, 214.500 482.983 C 212.448 482.119, 181.291 481.624, 182.136 482.469" stroke="none" fill="#f7c395" fill-rule="evenodd"/><path d="M 298.343 247.500 C 298.346 251.900, 298.522 253.576, 298.733 251.224 C 298.945 248.872, 298.942 245.272, 298.727 243.224 C 298.512 241.176, 298.339 243.100, 298.343 247.500 M 290.745 315.588 C 289.695 316.638, 289.814 323, 290.883 323 C 291.369 323, 291.962 322.212, 292.201 321.250 C 292.782 318.912, 291.685 314.648, 290.745 315.588 M 297.218 323.500 C 297.228 324.600, 297.580 326.850, 298 328.500 C 298.686 331.195, 298.765 331.246, 298.782 329 C 298.792 327.625, 298.440 325.375, 298 324 C 297.373 322.041, 297.203 321.933, 297.218 323.500 M 292.688 326.646 C 291.314 328.020, 292.026 330.142, 293.750 329.810 C 294.712 329.624, 295.500 328.841, 295.500 328.070 C 295.500 326.491, 293.736 325.598, 292.688 326.646 M 289.290 332.967 C 286.793 334.988, 287.252 336, 290.667 336 C 292.997 336, 293.625 334.531, 292.232 332.341 C 291.701 331.507, 290.875 331.683, 289.290 332.967 M 297.100 334.281 C 297.045 335.261, 296.325 336.322, 295.500 336.638 C 294.675 336.955, 294.014 338.178, 294.030 339.357 C 294.058 341.293, 294.159 341.331, 295.080 339.750 C 295.641 338.788, 296.527 338, 297.050 338 C 297.633 338, 298.093 356.416, 298.240 385.750 L 298.480 433.500 298.750 386.872 C 298.898 361.227, 298.610 338.502, 298.110 336.372 C 297.610 334.243, 297.156 333.302, 297.100 334.281 M 293.475 343.317 C 293.067 344.317, 293.193 345.593, 293.754 346.154 C 295.160 347.560, 295.914 345.929, 294.982 343.500 C 294.260 341.617, 294.171 341.607, 293.475 343.317 M 187.304 456.747 C 193.247 456.924, 202.697 456.923, 208.304 456.745 C 213.912 456.567, 209.050 456.422, 197.500 456.423 C 185.950 456.424, 181.362 456.570, 187.304 456.747 M 242.789 456.741 C 246.248 456.937, 251.648 456.936, 254.789 456.738 C 257.930 456.540, 255.100 456.380, 248.500 456.382 C 241.900 456.384, 239.330 456.546, 242.789 456.741" stroke="none" fill="#974421" fill-rule="evenodd"/><path d="M 286.553 232.250 C 286.341 232.938, 285.932 236.431, 285.644 240.012 C 284.821 250.234, 286.215 249.504, 267.585 249.467 L 251.196 249.434 251.722 252.674 C 252.011 254.455, 251.917 256.720, 251.513 257.706 C 251.108 258.693, 250.619 301.800, 250.425 353.500 C 250.230 405.200, 249.818 448.919, 249.509 450.653 C 249.199 452.388, 248.395 454.015, 247.723 454.269 C 247.050 454.523, 230.312 454.817, 210.527 454.922 C 190.743 455.026, 174.355 455.312, 174.111 455.556 C 173.432 456.235, 230.706 456.079, 255.344 455.335 C 278.089 454.649, 280.287 454.144, 276.597 450.454 C 274.427 448.284, 274.589 447.265, 277.237 446.425 C 280.438 445.409, 286 439.889, 286 437.728 C 286 436.591, 284.861 435.499, 283 434.850 C 279.275 433.552, 278.593 429.243, 282.190 429.728 C 283.169 429.859, 284.201 429.018, 284.643 427.728 C 285.064 426.502, 285.498 404.800, 285.608 379.500 C 285.718 354.200, 285.823 332.825, 285.841 332 C 285.860 331.175, 285.650 317.675, 285.375 302 C 285.073 284.786, 285.286 270.530, 285.915 266 C 286.487 261.875, 287.078 252.558, 287.228 245.296 L 287.500 232.091 290.500 231.706 L 293.500 231.320 290.219 231.160 C 288.342 231.069, 286.773 231.535, 286.553 232.250 M 149.976 238 C 149.474 239.528, 147.921 258.113, 148.012 261.500 C 148.328 273.288, 148.428 373.179, 148.127 377 C 147.932 379.475, 147.859 385.331, 147.965 390.012 C 148.071 394.694, 147.840 399.791, 147.451 401.339 C 147.016 403.071, 147.256 405.110, 148.074 406.639 C 149.070 408.499, 149.126 409.569, 148.297 410.896 C 147.486 412.195, 147.491 413.799, 148.316 416.889 C 149.152 420.022, 149.151 421.288, 148.313 421.807 C 146.887 422.688, 146.653 448.668, 148.063 449.539 C 148.596 449.869, 148.738 450.615, 148.377 451.199 C 148.006 451.800, 148.303 452.066, 149.065 451.812 C 149.804 451.565, 150.808 449.820, 151.297 447.934 C 152.301 444.058, 153.412 443.081, 157 442.916 L 159.500 442.801 157 442.101 C 155.027 441.549, 154.565 440.851, 154.809 438.793 C 154.980 437.358, 154.388 432.655, 153.494 428.342 C 152.065 421.445, 151.868 409.717, 151.863 331 C 151.860 281.775, 151.471 240.600, 150.999 239.500 C 150.527 238.400, 150.067 237.725, 149.976 238 M 252.523 259.963 C 251.737 261.235, 251.566 433.489, 252.349 434.756 C 252.682 435.295, 255.425 435.793, 258.445 435.862 C 262.930 435.966, 264.125 435.635, 264.972 434.053 C 266.031 432.074, 265.387 424.902, 264.069 424 C 263.667 423.725, 263.256 419.450, 263.156 414.500 C 263.056 409.550, 262.700 398.902, 262.366 390.838 L 261.758 376.176 264.968 374.516 L 268.178 372.857 267.647 362.178 C 267.354 356.305, 267.099 351.050, 267.079 350.500 C 267.059 349.950, 267.261 343.538, 267.529 336.250 L 268.015 323 265.564 323 C 260.828 323, 260.002 320.048, 259.976 303.027 C 259.963 294.487, 259.534 285.700, 259.024 283.500 C 258.513 281.300, 258.010 276.015, 257.907 271.756 C 257.783 266.645, 257.256 263.628, 256.359 262.883 C 255.612 262.263, 255 261.135, 255 260.378 C 255 258.798, 253.408 258.532, 252.523 259.963 M 268.409 429.378 C 267.209 432.504, 268.453 434.509, 271.456 434.289 C 274.532 434.063, 276.158 432.436, 275.741 430 C 275.382 427.909, 269.174 427.382, 268.409 429.378 M 252.177 444.282 C 251.702 446.052, 251.634 448.400, 252.026 449.500 C 252.631 451.197, 253.478 451.450, 257.619 451.172 C 260.304 450.992, 262.994 450.212, 263.599 449.438 C 264.203 448.664, 264.991 448.324, 265.349 448.682 C 265.707 449.040, 266 448.893, 266 448.354 C 266 446.671, 260.229 441.756, 258.830 442.246 C 258.099 442.503, 256.497 442.342, 255.270 441.889 C 253.331 441.172, 252.928 441.485, 252.177 444.282 M 170.500 442.862 C 171.968 443.469, 172.666 444.995, 173.123 448.595 L 173.747 453.500 173.623 448 C 173.509 442.900, 173.318 442.483, 171 442.267 C 168.805 442.063, 168.744 442.135, 170.500 442.862" stroke="none" fill="#bb602b" fill-rule="evenodd"/><path d="M 235.736 232.580 C 235.315 233.010, 222.040 233.504, 206.236 233.679 C 190.431 233.853, 175.998 234.249, 174.163 234.559 L 170.826 235.123 170.894 245.312 C 170.932 250.915, 170.634 295.550, 170.231 344.500 C 169.829 393.450, 169.882 435.075, 170.349 437 C 170.817 438.925, 171.781 441.175, 172.492 442 C 173.203 442.825, 174.100 445.865, 174.487 448.755 C 175.085 453.228, 175.555 454.101, 177.650 454.627 C 180.831 455.425, 247.742 454.591, 248.591 453.743 C 248.945 453.388, 249.465 451.052, 249.747 448.549 C 250.160 444.890, 249.957 444, 248.713 444 C 247.863 444, 246.904 443.438, 246.583 442.750 C 246.117 441.750, 245.883 441.750, 245.417 442.750 C 245.096 443.437, 244.394 444, 243.858 444 C 243.321 444, 243.173 443.438, 243.528 442.750 C 243.883 442.063, 243.325 442.539, 242.288 443.809 C 240.209 446.355, 237.135 447.246, 235.339 445.823 C 234.616 445.250, 233.930 445.305, 233.520 445.968 C 233.158 446.553, 232.345 446.713, 231.714 446.323 C 231.082 445.933, 228.076 445.496, 225.033 445.353 C 221.990 445.210, 216.125 444.851, 212 444.554 C 207.875 444.257, 203.713 443.983, 202.750 443.945 C 201.787 443.907, 201 443.501, 201 443.043 C 201 442.585, 199.423 442.566, 197.495 443.001 C 195.567 443.436, 193.797 443.481, 193.563 443.102 C 193.328 442.722, 189.757 442.459, 185.627 442.516 C 181.496 442.573, 178.318 442.294, 178.565 441.895 C 178.811 441.497, 178.544 441.015, 177.972 440.824 C 177.324 440.608, 177.480 439.725, 178.383 438.488 C 179.732 436.642, 181.718 436.423, 206.168 435.426 C 227.148 434.570, 233.304 434.612, 236.454 435.629 C 239.173 436.508, 240.793 436.587, 241.640 435.884 C 242.480 435.187, 243.485 435.189, 244.798 435.892 C 248.718 437.990, 249.905 435.443, 250.622 423.396 C 251.060 416.042, 250.929 412.074, 250.235 411.645 C 249.659 411.289, 249.416 410.126, 249.694 409.061 C 249.973 407.996, 249.564 406.216, 248.786 405.105 C 247.454 403.203, 247.288 403.186, 245.936 404.815 C 245.146 405.767, 244.362 407.435, 244.193 408.522 C 244.025 409.610, 243.111 411.175, 242.163 412 C 240.884 413.112, 240.458 414.986, 240.513 419.250 C 240.568 423.454, 240.224 425, 239.235 425 C 238.419 425, 238.180 425.496, 238.633 426.250 C 239.113 427.048, 238.752 426.987, 237.636 426.081 C 236.126 424.855, 235.929 424.855, 236.194 426.081 C 236.362 426.861, 235.938 427.387, 235.250 427.250 C 234.563 427.112, 234 427.369, 234 427.820 C 234 428.271, 229.969 428.583, 225.043 428.514 C 218.050 428.415, 215.663 428.005, 214.157 426.642 C 212.528 425.168, 210.187 424.897, 199.097 424.897 L 185.966 424.897 186.233 399.698 L 186.500 374.500 193.250 374.204 C 197.652 374.011, 200.015 373.490, 200.043 372.704 C 200.067 372.042, 200.179 355.329, 200.293 335.564 L 200.500 299.628 203.703 298.798 C 206.829 297.987, 206.913 297.819, 207.203 291.734 L 207.500 285.500 216.667 285.500 C 225.980 285.500, 227.214 285.150, 227.619 282.393 C 228.108 279.060, 229.036 278, 231.469 278 C 233.634 278, 234.017 278.470, 234.118 281.250 C 234.184 283.038, 234.172 284.871, 234.094 285.324 C 234.015 285.778, 234.412 285.864, 234.975 285.515 C 235.539 285.167, 236.007 285.471, 236.015 286.191 C 236.026 287.121, 236.243 287.169, 236.765 286.356 C 237.544 285.142, 244.716 285.088, 246.646 286.281 C 248.180 287.229, 248.731 285.506, 249.550 277.187 C 250.234 270.251, 250.205 270.133, 247.086 267.084 C 245.351 265.388, 243.511 264, 242.997 264 C 242.483 264, 242.322 263.325, 242.638 262.500 C 242.955 261.675, 244.066 261, 245.107 261 C 246.148 261, 247 260.599, 247 260.108 C 247 259.618, 248.181 258.920, 249.624 258.558 C 252.070 257.944, 252.215 257.596, 251.747 253.450 C 251.312 249.586, 251.493 249, 253.123 249 C 255.594 249, 255.539 247.374, 253.046 246.722 C 251.960 246.438, 250.849 245.053, 250.546 243.606 C 250.245 242.172, 249.795 239.988, 249.543 238.750 C 248.697 234.579, 246.685 232.986, 241.500 232.381 C 238.750 232.061, 236.156 232.150, 235.736 232.580 M 281.160 236.600 C 279.562 237.719, 279.105 238.756, 279.567 240.212 C 280.469 243.054, 275.616 246.916, 271.083 246.964 C 265.373 247.024, 268.353 248.100, 276.343 248.863 C 284.836 249.675, 284.974 249.557, 284.971 241.500 C 284.969 235.895, 283.981 234.625, 281.160 236.600 M 239.638 241.500 C 239.247 242.520, 239.692 243, 241.031 243 C 242.115 243, 243 242.325, 243 241.500 C 243 240.675, 242.373 240, 241.607 240 C 240.841 240, 239.955 240.675, 239.638 241.500 M 236.020 242.476 C 235.324 243.314, 235.067 244, 235.449 244 C 235.831 244, 235.414 244.729, 234.524 245.619 C 233.633 246.510, 232.633 246.967, 232.301 246.635 C 231.969 246.303, 231.084 246.812, 230.334 247.766 C 229.585 248.719, 229.031 249.050, 229.104 248.500 C 229.427 246.070, 228.892 245.757, 227.498 247.559 C 226.462 248.896, 226.167 249.002, 226.548 247.898 C 226.998 246.593, 226.351 246.315, 223.050 246.394 C 220.823 246.448, 219 246.817, 219 247.214 C 219 247.612, 218.320 247.676, 217.489 247.357 C 216.490 246.974, 216.154 247.239, 216.499 248.139 C 216.809 248.948, 218.521 249.500, 220.719 249.500 C 223.498 249.500, 224.687 250.033, 225.498 251.643 C 226.092 252.822, 227.153 254.480, 227.856 255.326 C 229.002 256.708, 229.315 256.693, 230.895 255.183 C 231.863 254.257, 232.437 252.825, 232.169 252 C 231.901 251.175, 232.045 250.829, 232.489 251.232 C 233.653 252.286, 236.765 248.348, 237.534 244.846 C 238.318 241.276, 237.752 240.389, 236.020 242.476 M 192.469 247.972 C 192.660 249.291, 193.714 249.496, 198.333 249.111 C 199.067 249.050, 199.667 248.394, 199.667 247.653 C 199.667 246.749, 198.449 246.338, 195.961 246.403 C 193.304 246.473, 192.316 246.916, 192.469 247.972 M 154.232 262 C 154.232 263.925, 154.438 264.712, 154.689 263.750 C 154.941 262.788, 154.941 261.212, 154.689 260.250 C 154.438 259.288, 154.232 260.075, 154.232 262 M 249 325.059 C 249 326.844, 248.583 327.861, 248 327.500 C 247.450 327.160, 247 327.321, 247 327.858 C 247 328.394, 247.563 329.060, 248.250 329.338 C 249.250 329.741, 249.250 329.858, 248.250 329.921 C 247.425 329.973, 247 331.721, 247 335.059 C 247 337.943, 247.402 339.870, 247.935 339.540 C 248.450 339.222, 249.053 340.433, 249.275 342.231 C 249.498 344.029, 249.752 340.212, 249.840 333.750 C 249.928 327.288, 249.775 322, 249.500 322 C 249.225 322, 249 323.377, 249 325.059 M 248.320 354 C 248.320 357.575, 248.502 359.038, 248.723 357.250 C 248.945 355.462, 248.945 352.538, 248.723 350.750 C 248.502 348.962, 248.320 350.425, 248.320 354 M 248.286 365.500 C 248.294 368.250, 248.488 369.256, 248.718 367.736 C 248.947 366.216, 248.941 363.966, 248.704 362.736 C 248.467 361.506, 248.279 362.750, 248.286 365.500 M 154.731 427.750 C 154.442 429.813, 154.549 433.750, 154.969 436.500 C 155.665 441.059, 155.745 440.728, 155.866 432.750 C 156.008 423.447, 155.591 421.608, 154.731 427.750" stroke="none" fill="#ce7533" fill-rule="evenodd"/><path d="M 253.250 44.689 C 254.213 44.941, 255.787 44.941, 256.750 44.689 C 257.712 44.438, 256.925 44.232, 255 44.232 C 253.075 44.232, 252.287 44.438, 253.250 44.689 M 262.500 45 C 262.840 45.550, 263.991 46, 265.059 46 C 266.127 46, 267 45.550, 267 45 C 267 44.450, 265.848 44, 264.441 44 C 262.990 44, 262.149 44.433, 262.500 45 M 284.443 56.223 C 286.325 58.910, 286.421 61.348, 284.750 64.044 C 283.937 65.356, 283.849 66.312, 284.500 66.781 C 285.140 67.241, 285.297 73.989, 284.936 85.500 C 284.398 102.669, 285.179 110.947, 287.051 107.918 C 287.484 107.216, 287.829 94.798, 287.817 80.321 L 287.795 54 285.341 54 C 283.004 54, 282.961 54.107, 284.443 56.223 M 339.500 154 C 339.123 154.610, 340.756 155.030, 343.691 155.077 C 346.336 155.119, 349.288 155.304, 350.250 155.488 C 351.248 155.679, 352 155.217, 352 154.412 C 352 153.355, 350.508 153, 346.059 153 C 342.791 153, 339.840 153.450, 339.500 154 M 140.630 235.250 C 139.966 237.727, 139.750 401.587, 140.411 400.917 C 140.637 400.688, 141.120 390.616, 141.485 378.535 C 141.850 366.454, 142.334 356.268, 142.562 355.899 C 142.790 355.531, 143.268 327.728, 143.623 294.115 C 144.198 239.840, 144.101 233, 142.752 233 C 141.917 233, 140.962 234.012, 140.630 235.250 M 305.272 369 C 305.272 371.475, 305.467 372.488, 305.706 371.250 C 305.944 370.012, 305.944 367.988, 305.706 366.750 C 305.467 365.512, 305.272 366.525, 305.272 369 M 306.709 376 C 305.427 380.053, 304.228 406.030, 304.369 426.699 L 304.500 445.899 299.500 448.486 C 294.514 451.066, 294.496 451.067, 293.128 449.036 C 292.147 447.580, 290.663 447, 287.918 447 L 284.081 447 283.790 455.250 L 283.500 463.500 272.177 464.157 C 265.949 464.518, 260.648 465.018, 260.398 465.269 C 260.148 465.519, 262.093 466.263, 264.721 466.921 C 274.264 469.311, 277.430 470.215, 279.941 471.264 C 283.043 472.559, 283.581 472.715, 285.500 472.875 C 286.325 472.944, 287 473.648, 287 474.441 C 287 475.234, 287.520 476.203, 288.155 476.595 C 288.934 477.077, 289.040 476.852, 288.483 475.905 C 287.995 475.075, 288.476 475.217, 289.657 476.250 C 291.210 477.608, 293.473 478, 299.768 478 L 307.879 478 308.189 458.750 C 308.649 430.286, 307.626 373.102, 306.709 376" stroke="none" fill="#000000" fill-rule="evenodd"/><path d="M 253.250 44.689 C 254.213 44.941, 255.787 44.941, 256.750 44.689 C 257.712 44.438, 256.925 44.232, 255 44.232 C 253.075 44.232, 252.287 44.438, 253.250 44.689 M 262.500 45 C 262.840 45.550, 263.991 46, 265.059 46 C 266.127 46, 267 45.550, 267 45 C 267 44.450, 265.848 44, 264.441 44 C 262.990 44, 262.149 44.433, 262.500 45 M 284.443 56.223 C 286.325 58.910, 286.421 61.348, 284.750 64.044 C 283.937 65.356, 283.849 66.312, 284.500 66.781 C 285.140 67.241, 285.297 73.989, 284.936 85.500 C 284.398 102.669, 285.179 110.947, 287.051 107.918 C 287.484 107.216, 287.829 94.798, 287.817 80.321 L 287.795 54 285.341 54 C 283.004 54, 282.961 54.107, 284.443 56.223 M 339.500 154 C 339.123 154.610, 340.756 155.030, 343.691 155.077 C 346.336 155.119, 349.288 155.304, 350.250 155.488 C 351.248 155.679, 352 155.217, 352 154.412 C 352 153.355, 350.508 153, 346.059 153 C 342.791 153, 339.840 153.450, 339.500 154 M 140.630 235.250 C 139.966 237.727, 139.750 401.587, 140.411 400.917 C 140.637 400.688, 141.120 390.616, 141.485 378.535 C 141.850 366.454, 142.334 356.268, 142.562 355.899 C 142.790 355.531, 143.268 327.728, 143.623 294.115 C 144.198 239.840, 144.101 233, 142.752 233 C 141.917 233, 140.962 234.012, 140.630 235.250 M 305.272 369 C 305.272 371.475, 305.467 372.488, 305.706 371.250 C 305.944 370.012, 305.944 367.988, 305.706 366.750 C 305.467 365.512, 305.272 366.525, 305.272 369 M 306.709 376 C 305.427 380.053, 304.228 406.030, 304.369 426.699 L 304.500 445.899 299.500 448.486 C 294.514 451.066, 294.496 451.067, 293.128 449.036 C 292.147 447.580, 290.663 447, 287.918 447 L 284.081 447 283.790 455.250 L 283.500 463.500 272.177 464.157 C 265.949 464.518, 260.648 465.018, 260.398 465.269 C 260.148 465.519, 262.093 466.263, 264.721 466.921 C 274.264 469.311, 277.430 470.215, 279.941 471.264 C 283.043 472.559, 283.581 472.715, 285.500 472.875 C 286.325 472.944, 287 473.648, 287 474.441 C 287 475.234, 287.520 476.203, 288.155 476.595 C 288.934 477.077, 289.040 476.852, 288.483 475.905 C 287.995 475.075, 288.476 475.217, 289.657 476.250 C 291.210 477.608, 293.473 478, 299.768 478 L 307.879 478 308.189 458.750 C 308.649 430.286, 307.626 373.102, 306.709 376" stroke="none" fill="#000000" fill-rule="evenodd"/><path d="M 162.678 43.160 C 161.814 43.644, 161.520 51.504, 161.576 72.660 L 161.653 101.500 165.474 101.819 C 167.836 102.016, 169.639 101.634, 170.193 100.819 C 170.686 100.094, 170.957 89.285, 170.795 76.800 C 170.586 60.757, 170.835 53.765, 171.642 52.958 C 172.958 51.642, 266.279 51.944, 267.602 53.269 C 268.025 53.691, 268.625 55.941, 268.935 58.269 C 269.496 62.471, 269.532 62.504, 274.245 63.045 C 276.855 63.345, 279.494 64.094, 280.109 64.709 C 280.887 65.487, 281.113 72.372, 280.852 87.388 C 280.541 105.310, 280.213 109.216, 278.907 110.522 C 276.465 112.964, 252.786 114.116, 211 113.825 C 174.693 113.573, 174.488 113.560, 172.250 111.331 C 171.012 110.099, 170 107.972, 170 106.604 C 170 105.237, 169.586 103.862, 169.081 103.550 C 167.762 102.735, 165 105.795, 165 108.071 C 165 109.132, 164.361 110, 163.579 110 C 161.988 110, 160.980 113.737, 161.151 119 C 161.338 124.728, 162.498 126, 167.535 126 C 170.048 126, 172 125.531, 172 124.927 C 172 124.336, 172.787 124.004, 173.750 124.188 C 175.260 124.476, 175.569 126.098, 176 136.011 C 176.499 147.466, 176.507 147.500, 179 147.500 C 181.483 147.500, 181.502 147.434, 181.748 137.500 C 182.128 122.194, 181.105 123.428, 194.233 122.430 C 200.430 121.959, 231.974 121.557, 264.330 121.537 C 321.619 121.501, 323.198 121.551, 324.593 123.459 C 325.717 124.995, 326.004 129.143, 325.923 142.658 C 325.866 152.140, 326.079 160.318, 326.396 160.831 C 326.713 161.344, 329.862 162.074, 333.394 162.452 C 337.578 162.900, 340.373 163.755, 341.414 164.905 C 342.855 166.497, 342.987 174.762, 342.756 249.085 L 342.500 331.500 338.723 332.433 C 334.755 333.413, 333.512 335.518, 334.167 340.148 C 334.490 342.429, 334.787 342.500, 344 342.500 L 353.500 342.500 354.075 247.500 C 354.391 195.250, 354.467 152.275, 354.244 152 C 354.020 151.725, 349.374 151.345, 343.919 151.156 L 334 150.813 334 133.106 C 334 120.668, 333.643 115.043, 332.800 114.200 C 332.121 113.521, 328.867 113, 325.300 113 C 321.533 113, 319 112.574, 319 111.941 C 319 111.359, 319.450 111.160, 320 111.500 C 320.550 111.840, 321 111.641, 321 111.059 C 321 109.438, 318.014 109.800, 317.362 111.500 C 316.608 113.465, 312.105 113.438, 311.348 111.464 C 310.818 110.083, 310.522 110.083, 308.414 111.464 C 305.144 113.607, 292.725 113.582, 290.571 111.429 C 289.217 110.074, 289 105.939, 289 81.429 C 289 59.412, 288.718 52.975, 287.750 52.889 C 287.063 52.828, 283.494 52.867, 279.820 52.976 C 273.364 53.166, 273.090 53.075, 271.627 50.245 C 270.265 47.611, 270.272 47.157, 271.698 45.730 C 273.147 44.282, 272.990 44.093, 269.892 43.554 C 265.131 42.726, 164.115 42.354, 162.678 43.160 M 253.250 44.689 C 254.213 44.941, 255.787 44.941, 256.750 44.689 C 257.712 44.438, 256.925 44.232, 255 44.232 C 253.075 44.232, 252.287 44.438, 253.250 44.689 M 262.500 45 C 262.840 45.550, 263.991 46, 265.059 46 C 266.127 46, 267 45.550, 267 45 C 267 44.450, 265.848 44, 264.441 44 C 262.990 44, 262.149 44.433, 262.500 45 M 284.443 56.223 C 286.325 58.910, 286.421 61.348, 284.750 64.044 C 283.937 65.356, 283.849 66.312, 284.500 66.781 C 285.140 67.241, 285.297 73.989, 284.936 85.500 C 284.398 102.669, 285.179 110.947, 287.051 107.918 C 287.484 107.216, 287.829 94.798, 287.817 80.321 L 287.795 54 285.341 54 C 283.004 54, 282.961 54.107, 284.443 56.223 M 273.698 138.635 C 273.314 139.019, 273 142.625, 273 146.648 C 273 155.355, 272.812 155.241, 286.500 154.794 L 295.500 154.500 295.500 146.500 L 295.500 138.500 284.948 138.218 C 279.145 138.063, 274.083 138.251, 273.698 138.635 M 162.667 145.667 C 162.300 146.033, 162 150.327, 162 155.209 C 162 164.014, 161.827 164.580, 157.750 169.072 C 156.787 170.132, 156 171.502, 156 172.117 C 156 172.827, 155.181 172.964, 153.750 172.495 C 152.512 172.089, 149.700 171.550, 147.500 171.298 C 143.781 170.871, 143.418 171.055, 142.337 173.919 C 141.697 175.614, 140.460 177, 139.587 177 C 137.606 177, 137.699 173.681, 137.851 239.500 C 138.100 346.870, 139.231 478.522, 139.911 479.256 C 140.296 479.671, 178.611 479.896, 225.056 479.756 L 309.500 479.500 310 423.500 C 310.494 368.194, 310.525 367.504, 312.500 367.831 C 321.386 369.303, 320.825 369.399, 321.174 366.351 C 321.411 364.281, 321.980 363.581, 323.250 363.794 C 324.452 363.996, 325 363.434, 325 362 C 325 360.566, 324.452 360.004, 323.250 360.206 C 321.756 360.457, 321.409 359.402, 320.881 353 C 320.540 348.875, 320.203 309.163, 320.131 264.750 C 320.027 200.923, 319.738 183.987, 318.750 183.938 C 318.063 183.904, 313.130 183.929, 307.790 183.994 C 302.108 184.064, 297.181 183.632, 295.914 182.954 C 293.967 181.912, 293.813 181.252, 294.383 176.398 C 295.016 171.014, 295.010 171, 292.259 171.027 C 290.714 171.042, 287.959 172.333, 286 173.959 C 282.334 177.003, 282.279 176.838, 287.500 178.469 C 288.756 178.861, 289 181.690, 289 195.840 L 289 212.742 293.901 213.393 C 297.203 213.830, 299.022 214.607, 299.474 215.771 C 301.667 221.417, 301.843 438.349, 299.658 443 C 298.595 445.262, 297.769 445.548, 290.992 446 L 283.500 446.500 282.906 451 C 282.579 453.475, 281.818 456.698, 281.214 458.162 C 280.206 460.607, 279.560 460.859, 273.308 461.250 C 257.676 462.226, 175.722 462.014, 174.492 460.994 C 173.800 460.419, 172.399 457.035, 171.379 453.474 L 169.525 447 163.869 447 C 157.867 447, 157 447.700, 157 452.547 C 157 455.284, 154.406 457.007, 150.316 456.985 C 144.032 456.951, 144.471 466.635, 144.803 335.353 C 144.970 269.509, 145.334 215.268, 145.612 214.818 C 145.891 214.368, 147.208 214, 148.540 214 C 151.873 214, 152.420 211.130, 151.688 197.475 C 150.995 184.530, 151.472 180.351, 154.034 176.955 C 155.672 174.783, 156.507 174.554, 161.820 174.817 L 167.771 175.112 168.495 162.088 C 169.018 152.685, 169.619 148.731, 170.657 147.870 C 171.817 146.907, 171.844 146.518, 170.797 145.854 C 169.235 144.862, 163.601 144.733, 162.667 145.667 M 339.500 154 C 339.123 154.610, 340.756 155.030, 343.691 155.077 C 346.336 155.119, 349.288 155.304, 350.250 155.488 C 351.248 155.679, 352 155.217, 352 154.412 C 352 153.355, 350.508 153, 346.059 153 C 342.791 153, 339.840 153.450, 339.500 154 M 306 192.980 C 303.530 193.620, 303.503 193.739, 303.777 203.064 C 303.998 210.610, 304.399 212.759, 305.777 213.793 C 307.383 214.998, 307.476 219.403, 307.141 278.543 C 306.785 341.408, 306.800 342, 308.777 342 C 310.371 342, 310.886 341.144, 311.332 337.750 C 311.639 335.413, 312.028 302.052, 312.195 263.615 C 312.497 194.491, 312.478 193.722, 310.500 193.031 C 309.400 192.647, 307.375 192.624, 306 192.980 M 140.630 235.250 C 139.966 237.727, 139.750 401.587, 140.411 400.917 C 140.637 400.688, 141.120 390.616, 141.485 378.535 C 141.850 366.454, 142.334 356.268, 142.562 355.899 C 142.790 355.531, 143.268 327.728, 143.623 294.115 C 144.198 239.840, 144.101 233, 142.752 233 C 141.917 233, 140.962 234.012, 140.630 235.250 M 305.272 369 C 305.272 371.475, 305.467 372.488, 305.706 371.250 C 305.944 370.012, 305.944 367.988, 305.706 366.750 C 305.467 365.512, 305.272 366.525, 305.272 369 M 306.709 376 C 305.427 380.053, 304.228 406.030, 304.369 426.699 L 304.500 445.899 299.500 448.486 C 294.514 451.066, 294.496 451.067, 293.128 449.036 C 292.147 447.580, 290.663 447, 287.918 447 L 284.081 447 283.790 455.250 L 283.500 463.500 272.177 464.157 C 265.949 464.518, 260.648 465.018, 260.398 465.269 C 260.148 465.519, 262.093 466.263, 264.721 466.921 C 274.264 469.311, 277.430 470.215, 279.941 471.264 C 283.043 472.559, 283.581 472.715, 285.500 472.875 C 286.325 472.944, 287 473.648, 287 474.441 C 287 475.234, 287.520 476.203, 288.155 476.595 C 288.934 477.077, 289.040 476.852, 288.483 475.905 C 287.995 475.075, 288.476 475.217, 289.657 476.250 C 291.210 477.608, 293.473 478, 299.768 478 L 307.879 478 308.189 458.750 C 308.649 430.286, 307.626 373.102, 306.709 376" stroke="none" fill="#2c2c38" fill-rule="evenodd"/><path d="M 290.754 217.154 C 291.388 217.788, 293.278 218.268, 294.954 218.220 L 298 218.134 298 224.126 C 298 227.650, 297.609 229.877, 297.051 229.532 C 296.165 228.984, 284.556 230.450, 280.818 231.582 C 279.721 231.914, 279.165 233.092, 279.218 234.970 C 279.296 237.714, 279.405 237.781, 281.529 236.389 C 283.511 235.090, 283.827 235.108, 284.379 236.546 C 284.721 237.436, 285.076 239.364, 285.168 240.832 C 285.261 242.299, 285.598 240.800, 285.918 237.500 L 286.500 231.500 292.500 231.483 L 298.500 231.465 298.796 224.725 C 299.080 218.262, 298.984 217.945, 296.481 216.993 C 292.739 215.570, 289.268 215.668, 290.754 217.154 M 146.421 231.655 C 146.739 232.485, 147.007 238.864, 147.015 245.832 C 147.026 254.380, 147.346 258.012, 148 257 C 148.533 256.175, 149.008 252.350, 149.055 248.500 C 149.102 244.650, 149.486 240.616, 149.908 239.536 C 150.608 237.746, 150.734 237.805, 151.337 240.205 C 151.700 241.653, 151.966 282.361, 151.928 330.669 C 151.862 415.025, 152.179 429, 154.158 429 C 154.687 429, 155.015 388.345, 154.952 330.500 L 154.845 231.999 152.173 231.439 C 150.703 231.131, 148.677 230.714, 147.671 230.513 C 146.377 230.253, 146.011 230.588, 146.421 231.655 M 171 233.512 C 171 234.686, 171.838 234.906, 174.750 234.496 C 176.813 234.206, 191.207 233.831, 206.738 233.663 C 222.268 233.496, 235.281 233.053, 235.654 232.679 C 236.028 232.306, 221.633 232, 203.667 232 C 175.183 232, 171 232.194, 171 233.512 M 248.100 235.250 C 249.822 238.559, 250 238.598, 250 235.667 C 250 233.936, 249.461 233, 248.465 233 C 247.193 233, 247.130 233.385, 248.100 235.250 M 258.750 247.709 C 256.688 247.936, 255 248.550, 255 249.074 C 255 249.647, 258.279 249.797, 263.228 249.452 C 271.373 248.882, 275.046 248.013, 269.417 247.986 C 267.813 247.979, 265.600 247.821, 264.500 247.635 C 263.400 247.450, 260.813 247.483, 258.750 247.709 M 171.232 252 C 171.232 253.925, 171.438 254.713, 171.689 253.750 C 171.941 252.787, 171.941 251.213, 171.689 250.250 C 171.438 249.287, 171.232 250.075, 171.232 252 M 147.130 321.500 C 147.187 353.740, 147.584 376.762, 148.044 374.500 C 149.212 368.767, 149.154 267.847, 147.982 266 C 147.374 265.042, 147.067 285.082, 147.130 321.500 M 147 391 C 147 396.683, 147.256 401.077, 147.569 400.764 C 148.282 400.052, 148.241 381.908, 147.525 381.192 C 147.236 380.903, 147 385.317, 147 391 M 147 409 C 147 410.824, 147.415 411.862, 148 411.500 C 148.550 411.160, 149 410.035, 149 409 C 149 407.965, 148.550 406.840, 148 406.500 C 147.415 406.138, 147 407.176, 147 409 M 147.070 417.750 C 147.032 420.087, 147.450 422, 148 422 C 149.198 422, 149.198 418.289, 148 415.500 C 147.334 413.951, 147.125 414.458, 147.070 417.750 M 154.930 441.334 C 156.257 442.655, 167.242 443.282, 170 442.194 C 171.987 441.411, 170.610 441.136, 163.295 440.855 C 158.233 440.660, 154.468 440.875, 154.930 441.334 M 174.136 451.750 C 174.032 454.236, 174.412 454.996, 175.750 454.985 C 176.874 454.975, 177.089 454.707, 176.351 454.235 C 175.719 453.831, 174.993 452.375, 174.737 451 C 174.344 448.883, 174.251 448.998, 174.136 451.750" stroke="none" fill="#b27551" fill-rule="evenodd"/></svg>
